<?xml version="1.0" encoding="UTF-8"?>
<!DOCTYPE svg PUBLIC "-//W3C//DTD SVG 1.0//EN" "http://www.w3.org/TR/2001/REC-SVG-20010904/DTD/svg10.dtd">
<!-- Creator: CorelDRAW 2018 (64-Bit) -->
<svg xmlns="http://www.w3.org/2000/svg" xml:space="preserve" width="508px" height="91px" version="1.0" style="shape-rendering:geometricPrecision; text-rendering:geometricPrecision; image-rendering:optimizeQuality; fill-rule:evenodd; clip-rule:evenodd"
viewBox="0 0 545.507 98.18"
 xmlns:xlink="http://www.w3.org/1999/xlink">
 <defs>
  <style type="text/css">
   <![CDATA[
    .fil0 {fill:#264796;fill-rule:nonzero}
    .fil2 {fill:#EA533D;fill-rule:nonzero}
    .fil1 {fill:#EA533D;fill-rule:nonzero}
   ]]>
  </style>
 </defs>
 <g id="Layer_x0020_1">
  <metadata id="CorelCorpID_0Corel-Layer"/>
  <path class="fil0" d="M2.045 96.544c-0.636,0 -1.136,-0.182 -1.5,-0.546 -0.363,-0.363 -0.545,-0.863 -0.545,-1.5l0 -91.362c0,-0.636 0.182,-1.136 0.545,-1.5 0.364,-0.363 0.864,-0.545 1.5,-0.545l35.045 0c7.364,0 13.886,1.272 19.568,3.818 5.682,2.545 10.068,6.136 13.159,10.772 3.091,4.637 4.636,10 4.636,16.091l0 34.09c0,6.091 -1.545,11.455 -4.636,16.091 -3.091,4.637 -7.477,8.227 -13.159,10.773 -5.682,2.545 -12.204,3.818 -19.568,3.818l-35.045 0zm23.591 -22.636c0,0.454 0.227,0.682 0.682,0.682l11.727 0c3.091,0 5.636,-1.205 7.636,-3.614 2,-2.409 3.045,-5.568 3.136,-9.477l0 -25.364c0,-3.908 -1,-7.067 -3,-9.477 -2,-2.408 -4.636,-3.613 -7.909,-3.613l-11.59 0c-0.455,0 -0.682,0.227 -0.682,0.682l0 50.181zm112.089 -70.772c0,-0.636 0.182,-1.136 0.545,-1.5 0.364,-0.363 0.864,-0.545 1.5,-0.545l21.546 0c0.636,0 1.136,0.182 1.499,0.545 0.364,0.364 0.546,0.864 0.546,1.5l0 91.362c0,0.637 -0.182,1.137 -0.546,1.5 -0.363,0.364 -0.863,0.546 -1.499,0.546l-20.591 0c-1.091,0 -1.909,-0.455 -2.455,-1.364l-27.817 -46.363c-0.182,-0.273 -0.364,-0.386 -0.546,-0.34 -0.182,0.045 -0.273,0.249 -0.273,0.613l0.273 45.408c0,0.637 -0.182,1.137 -0.545,1.5 -0.364,0.364 -0.864,0.546 -1.5,0.546l-21.545 0c-0.637,0 -1.137,-0.182 -1.5,-0.546 -0.364,-0.363 -0.546,-0.863 -0.546,-1.5l0 -91.362c0,-0.636 0.182,-1.136 0.546,-1.5 0.363,-0.363 0.863,-0.545 1.5,-0.545l20.59 0c1.091,0 1.909,0.454 2.455,1.363l27.681 46.363c0.182,0.273 0.364,0.387 0.545,0.341 0.182,-0.045 0.273,-0.25 0.273,-0.614l-0.136 -45.408zm72.408 94.499c-7.636,0 -14.318,-1.25 -20.045,-3.75 -5.727,-2.5 -10.159,-6.068 -13.295,-10.705 -3.137,-4.636 -4.705,-9.999 -4.705,-16.09l0 -1.909c0,-0.637 0.182,-1.137 0.546,-1.5 0.363,-0.364 0.863,-0.546 1.5,-0.546l21.136 0c0.636,0 1.136,0.182 1.5,0.546 0.363,0.363 0.545,0.863 0.545,1.5l0 0.818c0,2.545 1.341,4.795 4.022,6.749 2.682,1.955 6.251,2.932 10.705,2.932 3.363,0 5.773,-0.704 7.227,-2.113 1.455,-1.409 2.182,-2.978 2.182,-4.705 0,-2 -0.909,-3.499 -2.727,-4.5 -1.819,-1 -5.137,-2.227 -9.955,-3.681l-3.954 -1.091c-9,-2.727 -16.545,-6.364 -22.636,-10.909 -6.091,-4.546 -9.136,-11.136 -9.136,-19.773 0,-5.727 1.545,-10.795 4.636,-15.204 3.091,-4.409 7.341,-7.795 12.75,-10.159 5.409,-2.363 11.477,-3.545 18.204,-3.545 7.091,0 13.522,1.318 19.295,3.954 5.773,2.637 10.318,6.364 13.636,11.182 3.318,4.818 4.977,10.318 4.977,16.5l0 1.227c0,0.636 -0.181,1.136 -0.545,1.5 -0.364,0.363 -0.864,0.545 -1.5,0.545l-21.136 0c-0.637,0 -1.136,-0.182 -1.5,-0.545 -0.364,-0.364 -0.546,-0.864 -0.546,-1.5l0 -0.136c0,-2.728 -1.227,-5.205 -3.681,-7.432 -2.455,-2.227 -5.773,-3.341 -9.955,-3.341 -2.909,0 -5.204,0.591 -6.886,1.773 -1.682,1.182 -2.522,2.818 -2.522,4.909 0,1.636 0.613,3.023 1.84,4.159 1.227,1.136 3.114,2.227 5.659,3.272 2.546,1.046 6.455,2.387 11.727,4.023 0.727,0.273 3.932,1.25 9.614,2.932 5.682,1.682 10.431,4.727 14.25,9.136 3.818,4.409 5.727,9.75 5.727,16.023 0,6.09 -1.546,11.34 -4.637,15.749 -3.09,4.409 -7.409,7.796 -12.954,10.159 -5.545,2.364 -12,3.546 -19.363,3.546z"/>
  <path class="fil1" d="M507.189 98.18c-7.545,0 -14.204,-1.523 -19.977,-4.568 -5.773,-3.046 -10.249,-7.318 -13.431,-12.818 -3.182,-5.5 -4.773,-11.886 -4.773,-19.159l0 -25.636c0,-7.091 1.591,-13.363 4.773,-18.818 3.182,-5.454 7.658,-9.681 13.431,-12.681 5.773,-3 12.432,-4.5 19.977,-4.5 7.636,0 14.341,1.5 20.114,4.5 5.772,3 10.249,7.227 13.431,12.681 3.182,5.455 4.773,11.727 4.773,18.818l0 25.636c0,7.273 -1.591,13.659 -4.773,19.159 -3.182,5.5 -7.659,9.772 -13.431,12.818 -5.773,3.045 -12.478,4.568 -20.114,4.568zm0 -21.954c3.818,0 6.887,-1.25 9.205,-3.75 2.318,-2.5 3.477,-5.841 3.477,-10.022l0 -26.727c0,-4.182 -1.159,-7.523 -3.477,-10.023 -2.318,-2.5 -5.387,-3.75 -9.205,-3.75 -3.727,0 -6.749,1.25 -9.068,3.75 -2.318,2.5 -3.477,5.841 -3.477,10.023l0 26.727c0,4.181 1.159,7.522 3.477,10.022 2.319,2.5 5.341,3.75 9.068,3.75z"/>
  <path class="fil2" d="M463.69 21c0,0.636 -0.182,1.136 -0.546,1.499 -0.363,0.364 -0.863,0.546 -1.5,0.546l-40.635 0c-0.455,0 -0.682,0.227 -0.682,0.682l0 12.818c0,0.454 0.227,0.682 0.682,0.682l25.227 0c0.636,0 1.136,0.181 1.5,0.545 0.363,0.364 0.545,0.864 0.545,1.5l0 17.727c0,0.636 -0.182,1.136 -0.545,1.5 -0.364,0.363 -0.864,0.545 -1.5,0.545l-25.227 0c-0.455,0 -0.682,0.228 -0.682,0.682l0 34.772c0,0.637 -0.182,1.137 -0.545,1.5 -0.364,0.364 -0.864,0.546 -1.5,0.546l-21.545 0c-0.637,0 -1.137,-0.182 -1.5,-0.546 -0.364,-0.363 -0.546,-0.863 -0.546,-1.5l0 -91.362c0,-0.636 0.182,-1.136 0.546,-1.5 0.363,-0.363 0.863,-0.545 1.5,-0.545l64.907 0c0.637,0 1.137,0.182 1.5,0.545 0.364,0.364 0.546,0.864 0.546,1.5l0 17.864z"/>
  <path class="fil1" d="M358.419 3.136c0,-0.636 0.182,-1.136 0.545,-1.5 0.364,-0.363 0.864,-0.545 1.5,-0.545l21.545 0c0.637,0 1.137,0.182 1.5,0.545 0.364,0.364 0.546,0.864 0.546,1.5l0 91.362c0,0.637 -0.182,1.137 -0.546,1.5 -0.363,0.364 -0.863,0.546 -1.5,0.546l-20.59 0c-1.091,0 -1.909,-0.455 -2.455,-1.364l-27.817 -46.363c-0.182,-0.273 -0.364,-0.386 -0.546,-0.34 -0.182,0.045 -0.273,0.249 -0.273,0.613l0.273 45.408c0,0.637 -0.182,1.137 -0.545,1.5 -0.364,0.364 -0.864,0.546 -1.5,0.546l-21.545 0c-0.637,0 -1.137,-0.182 -1.5,-0.546 -0.364,-0.363 -0.546,-0.863 -0.546,-1.5l0 -54.585 0.804 -0.262 15.868 -38.56 5.964 0c1.091,0 1.909,0.454 2.455,1.363l27.681 46.363c0.182,0.273 0.364,0.387 0.545,0.341 0.182,-0.045 0.273,-0.25 0.273,-0.614l-0.136 -45.408z"/>
  <path class="fil1" d="M249.588 96.544c-0.727,0 -1.25,-0.228 -1.568,-0.682 -0.318,-0.454 -0.341,-1 -0.068,-1.636l38.181 -91.499c0.455,-1.091 1.273,-1.636 2.455,-1.636l21.136 0c0.727,0 1.249,0.204 1.568,0.613 0.318,0.41 0.341,0.978 0.068,1.705l-38.045 91.498c-0.364,1.091 -1.182,1.637 -2.454,1.637l-21.273 0z"/>
 </g>
</svg>
